<?xml version="1.0" encoding="utf-8"?>
<!-- Generator: Adobe Illustrator 16.0.0, SVG Export Plug-In . SVG Version: 6.00 Build 0)  -->
<!DOCTYPE svg PUBLIC "-//W3C//DTD SVG 1.1//EN" "http://www.w3.org/Graphics/SVG/1.1/DTD/svg11.dtd">
<svg version="1.1" id="Layer_1" xmlns="http://www.w3.org/2000/svg" xmlns:xlink="http://www.w3.org/1999/xlink" x="0px" y="0px"
	 width="612px" height="46.33px" viewBox="0 0 612 46.33" enable-background="new 0 0 612 46.33" xml:space="preserve">
<path opacity="0.5" fill="#FFFFFF" d="M0,0c0,0,104,45.085,105.125,45.75s4.625,0.875,6.25,0s61.838-26.968,63-27.375
	c2.5-0.875,4.875-1.125,6.625-0.5s42.092,12.102,43.875,12.625c2.898,0.851,3.26,0.708,6.375,0C234,29.875,332.75,0,332.75,0H0z"/>
<path opacity="0.5" fill="#FFFFFF" d="M612,0c0,0-104,45.085-105.125,45.75s-4.625,0.875-6.25,0s-61.838-26.968-63-27.375
	c-2.5-0.875-4.875-1.125-6.625-0.5S388.908,29.977,387.125,30.5c-2.898,0.851-3.26,0.708-6.375,0C378,29.875,279.25,0,279.25,0H612z
	"/>
<path opacity="0.5" fill="#FFFFFF" d="M424.667,0c0,0-104,45.085-105.125,45.75s-4.625,0.875-6.25,0s-61.838-26.968-63-27.375
	c-2.5-0.875-4.875-1.125-6.625-0.5S201.575,29.977,199.792,30.5c-2.898,0.851-3.26,0.708-6.375,0C190.667,29.875,91.917,0,91.917,0
	H424.667z"/>
<path opacity="0.5" fill="#FFFFFF" d="M544.667,0c0,0-104,45.085-105.125,45.75s-4.625,0.875-6.25,0s-61.838-26.968-63-27.375
	c-2.5-0.875-4.875-1.125-6.625-0.5S321.575,29.977,319.792,30.5c-2.898,0.851-3.26,0.708-6.375,0c-2.75-0.625-101.5-30.5-101.5-30.5
	H544.667z"/>
<path opacity="0.5" fill="#FFFFFF" d="M271.916,0c0,0,104,45.085,105.125,45.75s4.625,0.875,6.25,0s61.838-26.968,63-27.375
	c2.5-0.875,4.875-1.125,6.625-0.5s42.092,12.102,43.875,12.625c2.898,0.851,3.26,0.708,6.375,0c2.75-0.625,101.5-30.5,101.5-30.5
	H271.916z"/>
<path opacity="0.5" fill="#FFFFFF" d="M332.75,0c0,0-104,45.085-105.125,45.75s-4.625,0.875-6.25,0s-61.838-26.968-63-27.375
	c-2.5-0.875-4.875-1.125-6.625-0.5S109.659,29.977,107.875,30.5c-2.898,0.851-3.26,0.708-6.375,0C98.75,29.875,0,0,0,0H332.75z"/>
</svg>
